<mxfile host="app.diagrams.net" modified="2023-04-08T00:55:43.780Z" agent="Mozilla/5.0 (Windows NT 10.0; Win64; x64) AppleWebKit/537.36 (KHTML, like Gecko) Chrome/112.0.0.0 Safari/537.36 Config/96.2.8981.82" etag="4pzYjNJGIr3oMRT4YI0I" version="21.1.4" type="github">
  <diagram name="Page-1" id="gx8RTlckanF4XGCf7uQ6">
    <mxGraphModel dx="1434" dy="796" grid="1" gridSize="10" guides="1" tooltips="1" connect="1" arrows="1" fold="1" page="1" pageScale="1" pageWidth="850" pageHeight="1100" math="0" shadow="0">
      <root>
        <mxCell id="0" />
        <mxCell id="1" parent="0" />
        <mxCell id="s_HhVY3Nn2PeA9UuFXYv-9" value="" style="edgeStyle=orthogonalEdgeStyle;rounded=0;orthogonalLoop=1;jettySize=auto;html=1;labelBackgroundColor=none;strokeColor=#788AA3;fontColor=default;" edge="1" parent="1" source="s_HhVY3Nn2PeA9UuFXYv-1" target="s_HhVY3Nn2PeA9UuFXYv-2">
          <mxGeometry relative="1" as="geometry" />
        </mxCell>
        <mxCell id="s_HhVY3Nn2PeA9UuFXYv-1" value="START" style="ellipse;whiteSpace=wrap;html=1;labelBackgroundColor=none;fillColor=#B2C9AB;strokeColor=#788AA3;fontColor=#46495D;" vertex="1" parent="1">
          <mxGeometry x="340" y="10" width="120" height="80" as="geometry" />
        </mxCell>
        <mxCell id="s_HhVY3Nn2PeA9UuFXYv-10" value="" style="edgeStyle=orthogonalEdgeStyle;rounded=0;orthogonalLoop=1;jettySize=auto;html=1;labelBackgroundColor=none;strokeColor=#788AA3;fontColor=default;" edge="1" parent="1" source="s_HhVY3Nn2PeA9UuFXYv-2" target="s_HhVY3Nn2PeA9UuFXYv-3">
          <mxGeometry relative="1" as="geometry" />
        </mxCell>
        <mxCell id="s_HhVY3Nn2PeA9UuFXYv-2" value="SET total TO 0" style="rounded=0;whiteSpace=wrap;html=1;labelBackgroundColor=none;fillColor=#B2C9AB;strokeColor=#788AA3;fontColor=#46495D;" vertex="1" parent="1">
          <mxGeometry x="340" y="140" width="120" height="60" as="geometry" />
        </mxCell>
        <mxCell id="s_HhVY3Nn2PeA9UuFXYv-11" value="" style="edgeStyle=orthogonalEdgeStyle;rounded=0;orthogonalLoop=1;jettySize=auto;html=1;labelBackgroundColor=none;strokeColor=#788AA3;fontColor=default;" edge="1" parent="1" source="s_HhVY3Nn2PeA9UuFXYv-3" target="s_HhVY3Nn2PeA9UuFXYv-4">
          <mxGeometry relative="1" as="geometry" />
        </mxCell>
        <mxCell id="s_HhVY3Nn2PeA9UuFXYv-3" value="FOR EACH number IN List" style="rhombus;whiteSpace=wrap;html=1;labelBackgroundColor=none;fillColor=#B2C9AB;strokeColor=#788AA3;fontColor=#46495D;" vertex="1" parent="1">
          <mxGeometry x="315" y="250" width="170" height="170" as="geometry" />
        </mxCell>
        <mxCell id="s_HhVY3Nn2PeA9UuFXYv-12" value="" style="edgeStyle=orthogonalEdgeStyle;rounded=0;orthogonalLoop=1;jettySize=auto;html=1;labelBackgroundColor=none;strokeColor=#788AA3;fontColor=default;" edge="1" parent="1" source="s_HhVY3Nn2PeA9UuFXYv-4" target="s_HhVY3Nn2PeA9UuFXYv-5">
          <mxGeometry relative="1" as="geometry" />
        </mxCell>
        <mxCell id="s_HhVY3Nn2PeA9UuFXYv-4" value="IF EVEN(number)" style="rounded=0;whiteSpace=wrap;html=1;labelBackgroundColor=none;fillColor=#B2C9AB;strokeColor=#788AA3;fontColor=#46495D;" vertex="1" parent="1">
          <mxGeometry x="340" y="470" width="120" height="60" as="geometry" />
        </mxCell>
        <mxCell id="s_HhVY3Nn2PeA9UuFXYv-18" value="" style="edgeStyle=orthogonalEdgeStyle;rounded=0;orthogonalLoop=1;jettySize=auto;html=1;entryX=1;entryY=0.75;entryDx=0;entryDy=0;labelBackgroundColor=none;strokeColor=#788AA3;fontColor=default;" edge="1" parent="1" source="s_HhVY3Nn2PeA9UuFXYv-5" target="s_HhVY3Nn2PeA9UuFXYv-6">
          <mxGeometry relative="1" as="geometry">
            <mxPoint x="400" y="810" as="targetPoint" />
            <Array as="points">
              <mxPoint x="400" y="820" />
              <mxPoint x="283" y="820" />
              <mxPoint x="283" y="833" />
            </Array>
          </mxGeometry>
        </mxCell>
        <mxCell id="s_HhVY3Nn2PeA9UuFXYv-5" value="Check if number is even" style="rhombus;whiteSpace=wrap;html=1;labelBackgroundColor=none;fillColor=#B2C9AB;strokeColor=#788AA3;fontColor=#46495D;" vertex="1" parent="1">
          <mxGeometry x="315" y="560" width="170" height="170" as="geometry" />
        </mxCell>
        <mxCell id="s_HhVY3Nn2PeA9UuFXYv-24" value="" style="edgeStyle=orthogonalEdgeStyle;rounded=0;orthogonalLoop=1;jettySize=auto;html=1;entryX=0;entryY=0.5;entryDx=0;entryDy=0;labelBackgroundColor=none;strokeColor=#788AA3;fontColor=default;" edge="1" parent="1" source="s_HhVY3Nn2PeA9UuFXYv-6" target="s_HhVY3Nn2PeA9UuFXYv-3">
          <mxGeometry relative="1" as="geometry">
            <mxPoint x="170" y="700" as="targetPoint" />
            <Array as="points">
              <mxPoint x="160" y="335" />
            </Array>
          </mxGeometry>
        </mxCell>
        <mxCell id="s_HhVY3Nn2PeA9UuFXYv-6" value="total &amp;lt;- total + number" style="rounded=0;whiteSpace=wrap;html=1;labelBackgroundColor=none;fillColor=#B2C9AB;strokeColor=#788AA3;fontColor=#46495D;" vertex="1" parent="1">
          <mxGeometry x="90" y="780" width="160" height="70" as="geometry" />
        </mxCell>
        <mxCell id="s_HhVY3Nn2PeA9UuFXYv-26" value="" style="edgeStyle=orthogonalEdgeStyle;rounded=0;orthogonalLoop=1;jettySize=auto;html=1;entryX=1;entryY=0.5;entryDx=0;entryDy=0;labelBackgroundColor=none;strokeColor=#788AA3;fontColor=default;" edge="1" parent="1" source="s_HhVY3Nn2PeA9UuFXYv-7" target="s_HhVY3Nn2PeA9UuFXYv-3">
          <mxGeometry relative="1" as="geometry">
            <mxPoint x="640" y="700" as="targetPoint" />
            <Array as="points">
              <mxPoint x="650" y="335" />
            </Array>
          </mxGeometry>
        </mxCell>
        <mxCell id="s_HhVY3Nn2PeA9UuFXYv-7" value="total &amp;lt;- total - number" style="rounded=0;whiteSpace=wrap;html=1;labelBackgroundColor=none;fillColor=#B2C9AB;strokeColor=#788AA3;fontColor=#46495D;" vertex="1" parent="1">
          <mxGeometry x="560" y="780" width="160" height="70" as="geometry" />
        </mxCell>
        <mxCell id="s_HhVY3Nn2PeA9UuFXYv-8" value="END" style="ellipse;whiteSpace=wrap;html=1;labelBackgroundColor=none;fillColor=#B2C9AB;strokeColor=#788AA3;fontColor=#46495D;" vertex="1" parent="1">
          <mxGeometry x="340" y="890" width="120" height="80" as="geometry" />
        </mxCell>
        <mxCell id="s_HhVY3Nn2PeA9UuFXYv-22" style="edgeStyle=orthogonalEdgeStyle;rounded=0;orthogonalLoop=1;jettySize=auto;html=1;entryX=0;entryY=0.25;entryDx=0;entryDy=0;labelBackgroundColor=none;strokeColor=#788AA3;fontColor=default;" edge="1" parent="1" source="s_HhVY3Nn2PeA9UuFXYv-5" target="s_HhVY3Nn2PeA9UuFXYv-7">
          <mxGeometry relative="1" as="geometry">
            <mxPoint x="400" y="810" as="sourcePoint" />
            <Array as="points">
              <mxPoint x="400" y="820" />
              <mxPoint x="500" y="820" />
              <mxPoint x="500" y="798" />
            </Array>
          </mxGeometry>
        </mxCell>
        <mxCell id="s_HhVY3Nn2PeA9UuFXYv-27" value="IF EVEN" style="text;html=1;align=center;verticalAlign=middle;resizable=0;points=[];autosize=1;strokeColor=none;fillColor=none;labelBackgroundColor=none;fontColor=#46495D;" vertex="1" parent="1">
          <mxGeometry x="265" y="795" width="70" height="30" as="geometry" />
        </mxCell>
        <mxCell id="s_HhVY3Nn2PeA9UuFXYv-28" value="IF ODD" style="text;html=1;align=center;verticalAlign=middle;resizable=0;points=[];autosize=1;strokeColor=none;fillColor=none;labelBackgroundColor=none;fontColor=#46495D;" vertex="1" parent="1">
          <mxGeometry x="495" y="765" width="60" height="30" as="geometry" />
        </mxCell>
        <mxCell id="s_HhVY3Nn2PeA9UuFXYv-29" value="" style="endArrow=classic;html=1;rounded=0;labelBackgroundColor=none;strokeColor=#788AA3;fontColor=default;" edge="1" parent="1">
          <mxGeometry width="50" height="50" relative="1" as="geometry">
            <mxPoint x="399.5" y="809" as="sourcePoint" />
            <mxPoint x="399.5" y="890" as="targetPoint" />
          </mxGeometry>
        </mxCell>
        <mxCell id="s_HhVY3Nn2PeA9UuFXYv-30" value="IF NO MORE NUMBERS IN LIST" style="text;html=1;align=center;verticalAlign=middle;resizable=0;points=[];autosize=1;strokeColor=none;fillColor=none;labelBackgroundColor=none;fontColor=#46495D;" vertex="1" parent="1">
          <mxGeometry x="400" y="860" width="200" height="30" as="geometry" />
        </mxCell>
      </root>
    </mxGraphModel>
  </diagram>
</mxfile>
